<svg width="16" height="16" viewBox="0 0 16 16" fill="none" xmlns="http://www.w3.org/2000/svg">
<g clip-path="url(#clip0_129_400)">
<path d="M14.2858 11.4287C14.2858 11.7318 14.1654 12.0225 13.9511 12.2368C13.7368 12.4511 13.4461 12.5715 13.143 12.5715H5.71439C5.41129 12.5715 5.1206 12.4511 4.90627 12.2368C4.69194 12.0225 4.57153 11.7318 4.57153 11.4287V1.71439C4.57153 1.41129 4.69194 1.1206 4.90627 0.906268C5.1206 0.691941 5.41129 0.571533 5.71439 0.571533H10.8572L14.2858 4.0001V11.4287Z" stroke="#FBFDFF" stroke-width="1.71429" stroke-linecap="round" stroke-linejoin="round"/>
<path d="M10.8572 15.4286H2.85721C2.55411 15.4286 2.26342 15.3082 2.04909 15.0938C1.83476 14.8795 1.71436 14.5888 1.71436 14.2857V4" stroke="#FBFDFF" stroke-width="1.71429" stroke-linecap="round" stroke-linejoin="round"/>
</g>
<defs>
<clipPath id="clip0_129_400">
<rect width="16" height="16" fill="white"/>
</clipPath>
</defs>
</svg>
