<svg width="26" height="20" viewBox="0 0 26 20" fill="none" xmlns="http://www.w3.org/2000/svg">
<g clip-path="url(#clip0_96_402)">
<path d="M12.9761 8.57139C14.7513 8.57139 16.1904 7.13231 16.1904 5.35711C16.1904 3.58191 14.7513 2.14282 12.9761 2.14282C11.2009 2.14282 9.76184 3.58191 9.76184 5.35711C9.76184 7.13231 11.2009 8.57139 12.9761 8.57139Z" stroke="#FB8500" stroke-width="1.71429" stroke-linecap="round" stroke-linejoin="round"/>
<path d="M19.4047 19.2856H6.54761V17.857C6.54761 16.1521 7.2249 14.5169 8.43049 13.3114C9.63608 12.1058 11.2712 11.4285 12.9762 11.4285C14.6811 11.4285 16.3163 12.1058 17.5219 13.3114C18.7275 14.5169 19.4047 16.1521 19.4047 17.857V19.2856Z" stroke="#FB8500" stroke-width="1.71429" stroke-linecap="round" stroke-linejoin="round"/>
<path d="M18.6904 2.14282C19.5429 2.14282 20.3605 2.48147 20.9633 3.08426C21.5661 3.68706 21.9047 4.50463 21.9047 5.35711C21.9047 6.20959 21.5661 7.02716 20.9633 7.62995C20.3605 8.23275 19.5429 8.57139 18.6904 8.57139" stroke="#FB8500" stroke-width="1.71429" stroke-linecap="round" stroke-linejoin="round"/>
<path d="M20.9762 11.7C22.1931 12.1629 23.2408 12.9844 23.9805 14.0558C24.7203 15.1272 25.1173 16.398 25.1191 17.7V19.2857H22.9762" stroke="#FB8500" stroke-width="1.71429" stroke-linecap="round" stroke-linejoin="round"/>
</g>
<g clip-path="url(#clip1_96_402)">
<path d="M12.8572 8.57139C11.082 8.57139 9.64296 7.13231 9.64296 5.35711C9.64296 3.58191 11.082 2.14282 12.8572 2.14282C14.6324 2.14282 16.0715 3.58191 16.0715 5.35711C16.0715 7.13231 14.6324 8.57139 12.8572 8.57139Z" stroke="#FB8500" stroke-width="1.71429" stroke-linecap="round" stroke-linejoin="round"/>
<path d="M6.42862 19.2856H19.2858V17.857C19.2858 16.1521 18.6085 14.5169 17.4029 13.3114C16.1973 12.1058 14.5622 11.4285 12.8572 11.4285C11.1522 11.4285 9.5171 12.1058 8.31151 13.3114C7.10592 14.5169 6.42862 16.1521 6.42862 17.857V19.2856Z" stroke="#FB8500" stroke-width="1.71429" stroke-linecap="round" stroke-linejoin="round"/>
<path d="M7.14294 2.14282C6.29046 2.14282 5.4729 2.48147 4.8701 3.08426C4.26731 3.68706 3.92866 4.50463 3.92866 5.35711C3.92866 6.20959 4.26731 7.02716 4.8701 7.62995C5.4729 8.23275 6.29046 8.57139 7.14294 8.57139" stroke="#FB8500" stroke-width="1.71429" stroke-linecap="round" stroke-linejoin="round"/>
<path d="M4.85718 11.7C3.64027 12.1629 2.59261 12.9844 1.85284 14.0558C1.11306 15.1272 0.716042 16.398 0.714321 17.7V19.2857H2.85718" stroke="#FB8500" stroke-width="1.71429" stroke-linecap="round" stroke-linejoin="round"/>
</g>
<defs>
<clipPath id="clip0_96_402">
<rect width="20" height="20" fill="white" transform="translate(5.83337)"/>
</clipPath>
<clipPath id="clip1_96_402">
<rect width="20" height="20" fill="white" transform="matrix(-1 0 0 1 20 0)"/>
</clipPath>
</defs>
</svg>
