<svg width="20" height="20" viewBox="0 0 20 20" fill="none" xmlns="http://www.w3.org/2000/svg">
<g clip-path="url(#clip0_96_390)">
<path d="M17.1428 10.7142V7.85704C17.1428 7.47816 16.9923 7.1148 16.7244 6.84689C16.4565 6.57898 16.0931 6.42847 15.7142 6.42847H2.1428C1.76392 6.42847 1.40056 6.57898 1.13265 6.84689C0.864743 7.1148 0.714233 7.47816 0.714233 7.85704V17.857C0.714233 18.2359 0.864743 18.5993 1.13265 18.8672C1.40056 19.1351 1.76392 19.2856 2.1428 19.2856H15.7142C16.0931 19.2856 16.4565 19.1351 16.7244 18.8672C16.9923 18.5993 17.1428 18.2359 17.1428 17.857V14.2856" stroke="#FB8500" stroke-width="1.71429" stroke-linecap="round" stroke-linejoin="round"/>
<path d="M5.48572 2.85707L13.5857 0.742786C13.6767 0.717141 13.772 0.710203 13.8658 0.722392C13.9596 0.734582 14.0499 0.765645 14.1313 0.813708C14.2128 0.86177 14.2836 0.925835 14.3396 1.00204C14.3956 1.07824 14.4356 1.16499 14.4571 1.25707L14.8571 2.85707" stroke="#FB8500" stroke-width="1.71429" stroke-linecap="round" stroke-linejoin="round"/>
<path d="M18.5714 10.7141H14.9999C14.6054 10.7141 14.2856 11.0339 14.2856 11.4284V13.5713C14.2856 13.9657 14.6054 14.2855 14.9999 14.2855H18.5714C18.9658 14.2855 19.2856 13.9657 19.2856 13.5713V11.4284C19.2856 11.0339 18.9658 10.7141 18.5714 10.7141Z" stroke="#FB8500" stroke-width="1.71429" stroke-linecap="round" stroke-linejoin="round"/>
</g>
<defs>
<clipPath id="clip0_96_390">
<rect width="20" height="20" fill="white"/>
</clipPath>
</defs>
</svg>
