<svg width="20" height="20" viewBox="0 0 20 20" fill="none" xmlns="http://www.w3.org/2000/svg">
<g clip-path="url(#clip0_96_478)">
<path d="M10 13.5716C11.9725 13.5716 13.5714 11.9726 13.5714 10.0001C13.5714 8.02769 11.9725 6.42871 10 6.42871C8.02757 6.42871 6.42859 8.02769 6.42859 10.0001C6.42859 11.9726 8.02757 13.5716 10 13.5716Z" stroke="#FB8500" stroke-width="1.71429" stroke-linecap="round" stroke-linejoin="round"/>
<path d="M3.90002 19.1429C4.53751 18.0965 5.43346 17.2317 6.50175 16.6316C7.57003 16.0315 8.77473 15.7163 10 15.7163C11.2253 15.7163 12.43 16.0315 13.4983 16.6316C14.5666 17.2317 15.4625 18.0965 16.1 19.1429" stroke="#FB8500" stroke-width="1.71429" stroke-linecap="round" stroke-linejoin="round"/>
<path d="M19.2857 9.91436C19.287 9.71607 19.2471 9.51968 19.1684 9.33767C19.0897 9.15567 18.9739 8.99205 18.8286 8.85721L9.99998 0.714355L1.17141 8.85721C1.02602 8.99205 0.910284 9.15567 0.83158 9.33767C0.752877 9.51968 0.712924 9.71607 0.714266 9.91436V17.8572C0.714266 18.2361 0.864776 18.5995 1.13269 18.8674C1.40059 19.1353 1.76396 19.2858 2.14284 19.2858H17.8571C18.236 19.2858 18.5994 19.1353 18.8673 18.8674C19.1352 18.5995 19.2857 18.2361 19.2857 17.8572V9.91436Z" stroke="#FB8500" stroke-width="1.71429" stroke-linecap="round" stroke-linejoin="round"/>
</g>
<defs>
<clipPath id="clip0_96_478">
<rect width="20" height="20" fill="white"/>
</clipPath>
</defs>
</svg>
