<svg width="20" height="20" viewBox="0 0 20 20" fill="none" xmlns="http://www.w3.org/2000/svg">
<g clip-path="url(#clip0_96_468)">
<path d="M2.1428 8.57153H3.57138C3.76082 8.57153 3.9425 8.64679 4.07645 8.78074C4.21041 8.9147 4.28566 9.09638 4.28566 9.28582V12.8572C4.28566 13.0467 4.21041 13.2284 4.07645 13.3623C3.9425 13.4963 3.76082 13.5715 3.57138 13.5715H2.1428C1.76392 13.5715 1.40056 13.421 1.13265 13.1531C0.864743 12.8852 0.714233 12.5218 0.714233 12.143V10.0001C0.714233 9.62122 0.864743 9.25786 1.13265 8.98995C1.40056 8.72204 1.76392 8.57153 2.1428 8.57153Z" stroke="#FB8500" stroke-width="1.71429" stroke-linecap="round" stroke-linejoin="round"/>
<path d="M17.8571 13.5715H16.4285C16.2391 13.5715 16.0574 13.4963 15.9234 13.3623C15.7895 13.2284 15.7142 13.0467 15.7142 12.8572V9.28582C15.7142 9.09638 15.7895 8.9147 15.9234 8.78074C16.0574 8.64679 16.2391 8.57153 16.4285 8.57153H17.8571C18.236 8.57153 18.5993 8.72204 18.8672 8.98995C19.1351 9.25786 19.2856 9.62122 19.2856 10.0001V12.143C19.2856 12.5218 19.1351 12.8852 18.8672 13.1531C18.5993 13.421 18.236 13.5715 17.8571 13.5715Z" stroke="#FB8500" stroke-width="1.71429" stroke-linecap="round" stroke-linejoin="round"/>
<path d="M13.5714 17.5001C14.3292 17.5001 15.0559 17.1991 15.5917 16.6633C16.1275 16.1274 16.4286 15.4007 16.4286 14.643V13.5715" stroke="#FB8500" stroke-width="1.71429" stroke-linecap="round" stroke-linejoin="round"/>
<path d="M11.7856 15.7144C12.2592 15.7144 12.7134 15.9025 13.0483 16.2374C13.3832 16.5723 13.5713 17.0265 13.5713 17.5001C13.5713 17.9737 13.3832 18.4279 13.0483 18.7628C12.7134 19.0976 12.2592 19.2858 11.7856 19.2858H9.64277C9.16917 19.2858 8.71497 19.0976 8.38008 18.7628C8.04519 18.4279 7.85706 17.9737 7.85706 17.5001C7.85706 17.0265 8.04519 16.5723 8.38008 16.2374C8.71497 15.9025 9.16917 15.7144 9.64277 15.7144H11.7856Z" stroke="#FB8500" stroke-width="1.71429" stroke-linecap="round" stroke-linejoin="round"/>
<path d="M3.57141 8.5715V7.14293C3.57141 5.43796 4.24871 3.80283 5.4543 2.59724C6.65989 1.39165 8.29502 0.714355 9.99998 0.714355C11.7049 0.714355 13.3401 1.39165 14.5457 2.59724C15.7513 3.80283 16.4286 5.43796 16.4286 7.14293V8.5715" stroke="#FB8500" stroke-width="1.71429" stroke-linecap="round" stroke-linejoin="round"/>
<path d="M7.85706 5.71436V7.85721" stroke="#FB8500" stroke-width="1.71429" stroke-linecap="round" stroke-linejoin="round"/>
<path d="M12.1428 5.71436V7.85721" stroke="#FB8500" stroke-width="1.71429" stroke-linecap="round" stroke-linejoin="round"/>
<path d="M7.85706 10.7144C7.85706 12.6144 12.1428 12.6144 12.1428 10.7144" stroke="#FB8500" stroke-width="1.71429" stroke-linecap="round" stroke-linejoin="round"/>
</g>
<defs>
<clipPath id="clip0_96_468">
<rect width="20" height="20" fill="white"/>
</clipPath>
</defs>
</svg>
