<svg width="20" height="20" viewBox="0 0 20 20" fill="none" xmlns="http://www.w3.org/2000/svg">
<g clip-path="url(#clip0_96_380)">
<path d="M9.99995 0.714355C11.6253 0.714355 13.1842 1.36004 14.3335 2.50937C15.4828 3.6587 16.1285 5.21753 16.1285 6.84293C16.1285 13.6572 18.6142 15.0001 19.2857 15.0001H0.714233C1.39995 15.0001 3.87138 13.6429 3.87138 6.84293C3.87138 5.21753 4.51706 3.6587 5.66639 2.50937C6.81572 1.36004 8.37455 0.714355 9.99995 0.714355Z" stroke="#CAF0F8" stroke-width="1.71429" stroke-linecap="round" stroke-linejoin="round"/>
<path d="M7.85706 17.6143C7.98054 18.0886 8.25792 18.5085 8.6457 18.8083C9.03349 19.108 9.50978 19.2707 9.99991 19.2707C10.49 19.2707 10.9663 19.108 11.3541 18.8083C11.7419 18.5085 12.0193 18.0886 12.1428 17.6143" stroke="#CAF0F8" stroke-width="1.71429" stroke-linecap="round" stroke-linejoin="round"/>
</g>
<defs>
<clipPath id="clip0_96_380">
<rect width="20" height="20" fill="white"/>
</clipPath>
</defs>
</svg>
