<svg width="20" height="20" viewBox="0 0 20 20" fill="none" xmlns="http://www.w3.org/2000/svg">
<g clip-path="url(#clip0_96_437)">
<path d="M9.9999 11.4287C11.9723 11.4287 13.5713 9.82976 13.5713 7.85732C13.5713 5.88487 11.9723 4.28589 9.9999 4.28589C8.02745 4.28589 6.42847 5.88487 6.42847 7.85732C6.42847 9.82976 8.02745 11.4287 9.9999 11.4287Z" stroke="#FB8500" stroke-width="1.71429" stroke-linecap="round" stroke-linejoin="round"/>
<path d="M3.8999 17.0001C4.53739 15.9537 5.43334 15.0889 6.50163 14.4888C7.56991 13.8887 8.77461 13.5735 9.9999 13.5735C11.2252 13.5735 12.4299 13.8887 13.4982 14.4888C14.5665 15.0889 15.4624 15.9537 16.0999 17.0001" stroke="#FB8500" stroke-width="1.71429" stroke-linecap="round" stroke-linejoin="round"/>
<path d="M9.99995 19.2858C15.1283 19.2858 19.2857 15.1284 19.2857 10.0001C19.2857 4.87171 15.1283 0.714355 9.99995 0.714355C4.87159 0.714355 0.714233 4.87171 0.714233 10.0001C0.714233 15.1284 4.87159 19.2858 9.99995 19.2858Z" stroke="#FB8500" stroke-width="1.71429" stroke-linecap="round" stroke-linejoin="round"/>
</g>
<defs>
<clipPath id="clip0_96_437">
<rect width="20" height="20" fill="white"/>
</clipPath>
</defs>
</svg>
