<svg width="20" height="20" viewBox="0 0 20 20" fill="none" xmlns="http://www.w3.org/2000/svg">
<g clip-path="url(#clip0_96_448)">
<path d="M9.99997 19.2856C7.90746 16.9818 5.06968 15.4896 1.98569 15.0713C1.63466 15.0325 1.31046 14.865 1.07567 14.6012C0.840869 14.3374 0.712117 13.9959 0.71426 13.6428V2.14275C0.714246 1.93641 0.758933 1.73251 0.845247 1.54509C0.931561 1.35767 1.05745 1.19116 1.21426 1.05704C1.36831 0.925356 1.54861 0.827954 1.74319 0.771304C1.93777 0.714654 2.14217 0.700052 2.34283 0.728469C5.29182 1.21791 7.98957 2.68758 9.99997 4.8999V19.2856Z" stroke="#FB8500" stroke-width="1.71429" stroke-linecap="round" stroke-linejoin="round"/>
<path d="M10 19.2856C12.0925 16.9818 14.9303 15.4896 18.0143 15.0713C18.3653 15.0325 18.6895 14.865 18.9243 14.6012C19.1591 14.3374 19.2879 13.9959 19.2857 13.6428V2.14275C19.2857 1.93641 19.241 1.73251 19.1547 1.54509C19.0684 1.35767 18.9425 1.19116 18.7857 1.05704C18.6317 0.925356 18.4514 0.827954 18.2568 0.771304C18.0622 0.714654 17.8578 0.700052 17.6571 0.728469C14.7082 1.21791 12.0104 2.68758 10 4.8999V19.2856Z" stroke="#FB8500" stroke-width="1.71429" stroke-linecap="round" stroke-linejoin="round"/>
</g>
<defs>
<clipPath id="clip0_96_448">
<rect width="20" height="20" fill="white"/>
</clipPath>
</defs>
</svg>
