<svg width="20" height="20" viewBox="0 0 20 20" fill="none" xmlns="http://www.w3.org/2000/svg">
<g clip-path="url(#clip0_96_483)">
<path d="M7.14275 8.57139C8.91795 8.57139 10.357 7.13231 10.357 5.35711C10.357 3.58191 8.91795 2.14282 7.14275 2.14282C5.36755 2.14282 3.92847 3.58191 3.92847 5.35711C3.92847 7.13231 5.36755 8.57139 7.14275 8.57139Z" stroke="#FB8500" stroke-width="1.71429" stroke-linecap="round" stroke-linejoin="round"/>
<path d="M13.5714 19.2856H0.714233V17.857C0.714233 16.1521 1.39153 14.5169 2.59712 13.3114C3.80271 12.1058 5.43784 11.4285 7.1428 11.4285C8.84777 11.4285 10.4829 12.1058 11.6885 13.3114C12.8941 14.5169 13.5714 16.1521 13.5714 17.857V19.2856Z" stroke="#FB8500" stroke-width="1.71429" stroke-linecap="round" stroke-linejoin="round"/>
<path d="M12.8571 2.14282C13.7095 2.14282 14.5271 2.48147 15.1299 3.08426C15.7327 3.68706 16.0713 4.50463 16.0713 5.35711C16.0713 6.20959 15.7327 7.02716 15.1299 7.62995C14.5271 8.23275 13.7095 8.57139 12.8571 8.57139" stroke="#FB8500" stroke-width="1.71429" stroke-linecap="round" stroke-linejoin="round"/>
<path d="M15.1428 11.7C16.3597 12.1629 17.4074 12.9844 18.1472 14.0558C18.8869 15.1272 19.284 16.398 19.2857 17.7V19.2857H17.1428" stroke="#FB8500" stroke-width="1.71429" stroke-linecap="round" stroke-linejoin="round"/>
</g>
<defs>
<clipPath id="clip0_96_483">
<rect width="20" height="20" fill="white"/>
</clipPath>
</defs>
</svg>
