<svg width="20" height="20" viewBox="0 0 20 20" fill="none" xmlns="http://www.w3.org/2000/svg">
<g clip-path="url(#clip0_96_460)">
<path d="M7.47142 3.21436L8.0857 1.62864C8.1893 1.36016 8.37157 1.12923 8.60863 0.966087C8.8457 0.802947 9.1265 0.715206 9.41428 0.714355H10.5857C10.8735 0.715206 11.1543 0.802947 11.3913 0.966087C11.6284 1.12923 11.8107 1.36016 11.9143 1.62864L12.5286 3.21436L14.6143 4.41436L16.3 4.15721C16.5807 4.11911 16.8664 4.16532 17.1207 4.28996C17.3751 4.4146 17.5867 4.61205 17.7286 4.85721L18.3 5.85721C18.4464 6.10628 18.5139 6.3939 18.4935 6.6821C18.4731 6.9703 18.3658 7.24554 18.1857 7.4715L17.1428 8.80007V11.2001L18.2143 12.5286C18.3943 12.7546 18.5016 13.0298 18.522 13.318C18.5425 13.6062 18.475 13.8939 18.3286 14.1429L17.7571 15.1429C17.6152 15.3881 17.4037 15.5855 17.1493 15.7102C16.8949 15.8348 16.6093 15.881 16.3286 15.8429L14.6428 15.5858L12.5571 16.7858L11.9428 18.3715C11.8392 18.64 11.657 18.8709 11.4199 19.0341C11.1829 19.1972 10.902 19.2849 10.6143 19.2858H9.41428C9.1265 19.2849 8.8457 19.1972 8.60863 19.0341C8.37157 18.8709 8.1893 18.64 8.0857 18.3715L7.47142 16.7858L5.3857 15.5858L3.69999 15.8429C3.4193 15.881 3.13362 15.8348 2.87925 15.7102C2.62488 15.5855 2.41331 15.3881 2.27142 15.1429L1.69999 14.1429C1.55356 13.8939 1.4861 13.6062 1.5065 13.318C1.52691 13.0298 1.63422 12.7546 1.81428 12.5286L2.85713 11.2001V8.80007L1.7857 7.4715C1.60565 7.24554 1.49834 6.9703 1.47793 6.6821C1.45753 6.3939 1.52499 6.10628 1.67142 5.85721L2.24285 4.85721C2.38474 4.61205 2.59631 4.4146 2.85068 4.28996C3.10505 4.16532 3.39073 4.11911 3.67142 4.15721L5.35713 4.41436L7.47142 3.21436ZM7.14285 10.0001C7.14285 10.5652 7.31042 11.1176 7.62436 11.5874C7.93831 12.0573 8.38453 12.4235 8.90661 12.6397C9.42868 12.856 10.0032 12.9126 10.5574 12.8023C11.1116 12.6921 11.6207 12.42 12.0203 12.0204C12.4199 11.6208 12.692 11.1117 12.8022 10.5575C12.9125 10.0032 12.8559 9.42876 12.6396 8.90669C12.4234 8.38461 12.0572 7.93839 11.5873 7.62444C11.1175 7.3105 10.5651 7.14293 9.99999 7.14293C9.24223 7.14293 8.5155 7.44395 7.97969 7.97977C7.44387 8.51558 7.14285 9.24231 7.14285 10.0001Z" stroke="#FB8500" stroke-width="1.71429" stroke-linecap="round" stroke-linejoin="round"/>
</g>
<defs>
<clipPath id="clip0_96_460">
<rect width="20" height="20" fill="white"/>
</clipPath>
</defs>
</svg>
